<svg width="1060" height="941" viewBox="0 0 1060 941" fill="none" xmlns="http://www.w3.org/2000/svg">
<rect width="1060" height="936" fill="white"/>
<rect x="522.5" y="140.5" width="10" height="530" fill="#003B79"/>
<path d="M413 162L433 151.5L453 143.5L476 137L512.5 132V132C515.279 132 517.104 129.097 515.9 126.592L494.423 81.9192C493.815 80.6559 493.5 79.2722 493.5 77.8705V77.8705C493.5 75.3923 494.484 73.0155 496.237 71.2632L496.5 71V71C498.421 69.0791 501.026 68 503.743 68H551.046C553.298 68 555.5 68.6667 557.374 69.916L557.718 70.1452C558.566 70.711 559.313 71.4169 559.925 72.2328V72.2328C561.261 74.014 561.888 76.2274 561.687 78.4448L561.659 78.7559C561.554 79.9095 561.245 81.0354 560.748 82.0815L545.388 114.368C541.394 122.764 547.215 132.524 556.5 133V133L578 137L599.5 142.5L610 146L623 151.5L636.5 158L647.257 164.147C649.416 165.381 651.48 166.774 653.432 168.315L660 173.5L671 183L682.51 195.7C684.499 197.896 686.29 200.264 687.86 202.776L693 211L701 227L707 242.5L711 257L719 293.5L726.5 342.5L728.5 368L733.5 399.5L737.893 427.32C737.964 427.773 738 428.23 738 428.689V428.689C738 429.228 738.05 429.767 738.149 430.298L743.5 459L750 492L758 517L766 540L775.5 558.5L783 571.5L788.316 579.298C789.77 581.429 791.386 583.445 793.151 585.328L798 590.5L801.974 594.474C803.988 596.488 806.169 598.326 808.496 599.968L813.5 603.5L817.592 605.667C820.524 607.218 823.293 609.058 825.86 611.158L827.5 612.5L830.162 615.162C831.719 616.719 833.163 618.384 834.483 620.145L835.888 622.017C836.628 623.004 837.278 624.055 837.829 625.158V625.158C839.257 628.014 840 631.162 840 634.354V644.5V664.75C840 667.373 837.873 669.5 835.25 669.5V669.5C832.627 669.5 830.5 667.373 830.5 664.75V645V642.309C830.5 639.777 830.223 637.253 829.674 634.782L829.273 632.976C828.761 630.673 827.895 628.462 826.706 626.424V626.424C825.575 624.485 824.164 622.724 822.519 621.197L820.892 619.685C818.969 617.9 816.866 616.32 814.616 614.97L810.5 612.5L799 604.5L791.484 597.7C789.498 595.903 787.659 593.949 785.986 591.858L778.5 582.5L771.5 571.5L762 554L753 533L743.5 506.5L736.5 478L732.5 455L726.5 429.5L721 382.5L718 356.5L714 322.5L709.5 294.5L705 271L699.5 254.5L694.5 239.5L687.5 222.5L680.5 209.5L674.922 201.297C672.979 198.44 670.746 195.792 668.257 193.396L658.5 184L647.496 175.564C644.839 173.526 641.983 171.761 638.973 170.295L624 163L601.707 153.997C599.24 153.001 596.697 152.203 594.102 151.611L569.5 146L552 142.5L536.643 141.319C533.886 141.107 531.116 141.124 528.361 141.37L504.5 143.5L485 146L463 151.5L435.5 162L414.145 173.104C411.719 174.366 409.401 175.825 407.213 177.465L400.78 182.29C397.935 184.424 395.325 186.855 392.996 189.543L383.5 200.5L367.933 224.283C366.314 226.756 364.918 229.368 363.76 232.088L357.248 247.392C356.085 250.125 355.168 252.956 354.507 255.852L349 280L343 315.5L337.5 361L333 394L331 419.5L329.5 429.5L323 462.5L320 474.5L314 495L306 522.5L297.5 542.5L287 563L275 581.5L265.5 592.5L252 605.5L246.266 611.234C244.425 613.075 242.44 614.766 240.329 616.29L237.13 618.601C235.386 619.86 233.836 621.368 232.529 623.077V623.077C229.592 626.919 228 631.62 228 636.456V649V649C228.442 655.181 233.617 659.952 239.813 659.89L522.598 657.067C526.298 657.03 529.333 659.988 529.392 663.687V663.687C529.451 667.436 526.435 670.51 522.687 670.522L236.5 671.441C226.292 671.473 218 663.208 218 653V653L217.09 631.153C217.03 629.725 217.176 628.296 217.523 626.91V626.91C217.839 625.642 218.321 624.422 218.956 623.279L219.577 622.161C220.191 621.055 220.89 619.999 221.667 619L222.04 618.52C223.344 616.844 224.808 615.3 226.412 613.909L231.5 609.5L238.416 604.659C240.469 603.222 242.411 601.632 244.226 599.904L252 592.5L261.5 581.5L271.5 568.5L278.5 557.5L286 543.5L291.5 529.5L296 517L300 505.5L307 483L311.441 467.659C312.146 465.223 312.665 462.737 312.993 460.223L314 452.5L319.5 421L325 381L329.5 335.5L335 293L339.313 269.28C339.77 266.764 340.42 264.286 341.257 261.869L347.777 243.033C348.591 240.681 349.58 238.393 350.735 236.188L365.5 208L376.5 192.5L389.566 178.345C392.838 174.8 396.606 171.748 400.752 169.282L413 162Z" fill="#003B79"/>
<rect width="10" height="397" transform="matrix(0 1 1 0 329.5 419.5)" fill="#003B79"/>
<path d="M436.829 310.718H425.117C425.117 321.933 425.117 332.297 425.117 341.808C425.259 351.178 425.4 360.406 425.542 369.492H438.532C452.161 369.492 462.311 367.007 468.984 362.038C475.656 357.07 478.992 349.9 478.992 340.531C478.992 330.593 475.656 323.14 468.984 318.171C462.311 313.203 451.593 310.718 436.829 310.718ZM440.236 246.834H425.542C425.4 255.92 425.259 265.148 425.117 274.517C425.117 283.745 425.117 292.547 425.117 300.923H436.19C449.109 300.923 458.478 298.722 464.299 294.321C470.119 289.92 473.03 282.893 473.03 273.24C473.03 263.586 470.261 256.772 464.725 252.797C459.33 248.822 451.167 246.834 440.236 246.834ZM384.87 245.77V237.039H446.624C461.388 237.039 472.817 240.304 480.909 246.834C489.001 253.365 493.047 261.67 493.047 271.749C493.047 279.273 490.491 286.158 485.38 292.405C480.27 298.651 471.823 302.981 460.04 305.395C474.236 307.382 484.458 311.57 490.704 317.958C497.092 324.347 500.287 331.871 500.287 340.531C500.287 346.919 498.37 353.095 494.537 359.057C490.846 365.02 484.813 369.917 476.437 373.75C468.061 377.583 457.059 379.5 443.43 379.5H384.87V370.769L404.461 368.427C404.745 359.483 404.887 350.397 404.887 341.17C404.887 331.942 404.887 322.714 404.887 313.487V303.052C404.887 293.824 404.887 284.668 404.887 275.582C404.887 266.354 404.745 257.198 404.461 248.112L384.87 245.77Z" fill="#003B79"/>
<path d="M550.805 615.5V606.769L569.97 604.001V484.112L550.805 481.77V473.039H590.2L637.9 590.159L683.045 473.039H724.995V481.77L705.404 484.112C705.262 493.056 705.12 502.141 704.978 511.369C704.978 520.597 704.978 529.824 704.978 539.052V549.487C704.978 558.572 704.978 567.729 704.978 576.957C705.12 586.042 705.262 595.199 705.404 604.427L724.995 606.769V615.5H667.074V606.769L684.961 604.427C685.245 595.483 685.387 586.397 685.387 577.17C685.387 567.942 685.387 558.785 685.387 549.7V496.676L639.178 615.5H628.53L579.766 496.676L581.043 536.923V604.001L598.505 606.769V615.5H550.805Z" fill="#003B79"/>
<path d="M420.007 736.943L424.013 723.945L468.015 711.445L495.022 702.444L534.519 685.941L582.015 667.445L628.523 654.444L658.52 648.943L676.034 646.647L692 645L709 645L733.5 646.647L755.5 650.5L771.5 654.444L790 660.5L806 667.445L822 675L837.5 685L847 691.5L856 699L862 704L864.5 708L863.5 709.5L848.5 704L826 695.5L806 689.5L790 685L766 680L743.5 676.5L723 675L707.5 676.5L692 678L670.5 682L641 688L607.013 696.945L585.513 705.445L544.513 721.445L495.023 742.945L461.513 756.945L426.013 768.945L405.511 775.445L374.011 782.444L346.514 786.442L325.017 786.441L293.02 784.94L271.519 782.448L257.004 778.461L231.5 768.945L209 758L252.999 760.441L262.499 760.441L270.5 760.441L283.999 759.443L300.997 757.942L314.025 755.956L328.025 752.454L333.02 754.941L341.52 759.443L356.02 762.943L374.011 762.943L391.512 759.443L403.512 753.443L412.512 746.946L420.007 736.943Z" fill="#003B79"/>
<path d="M420.007 736.943L424.013 723.945L468.015 711.445L495.022 702.444L534.519 685.941L582.015 667.445L628.523 654.444L658.52 648.943L676.034 646.647L692 645L709 645L733.5 646.647L755.5 650.5L771.5 654.444L790 660.5L806 667.445L822 675L837.5 685L847 691.5L856 699L862 704L864.5 708L863.5 709.5L848.5 704L826 695.5L806 689.5L790 685L766 680L743.5 676.5L723 675L707.5 676.5L692 678L670.5 682L641 688L607.013 696.945L585.513 705.445L544.513 721.445L495.023 742.945L461.513 756.945L426.013 768.945L405.511 775.445L374.011 782.444L346.514 786.442L325.017 786.441L293.02 784.94L271.519 782.448L257.004 778.461L231.5 768.945L209 758L252.999 760.441L262.499 760.441L270.5 760.441L283.999 759.443L300.997 757.942L314.025 755.956L328.025 752.454L333.02 754.941L341.52 759.443L356.02 762.943L374.011 762.943L391.512 759.443L403.512 753.443L412.512 746.946L420.007 736.943Z" fill="#003B79"/>
<path d="M460.936 778.504L479.936 771.504L510.967 758.053L535.936 747L567.936 732L607.942 716.454L647.661 703.755L673.372 698.052L688.412 695.514L702.137 693.583L716.807 693.042L738.002 693.684L757.109 696.308L771.042 699.202L787.199 703.839L801.227 709.322L815.275 715.332L828.969 723.468L837.374 728.775L845.379 734.96L850.076 738.589C850.5 738.917 850.869 739.31 851.17 739.754L852.607 741.875C852.847 742.229 852.857 742.69 852.633 743.053V743.053C852.371 743.481 851.849 743.673 851.372 743.518L839.066 739.514L823.436 736.5L804.936 732L791.436 728.354L769.936 724.981L754.936 723L732.436 721.43L716.807 722.06L714.275 722.06C706.906 722.06 699.561 722.875 692.371 724.489L684.762 726.197L659.497 732.314L630.453 741.115L612.171 749.135L581.936 764.5L541.436 784.5L512.436 797.899L479.936 809.01L460.936 814L438.936 819.5L418.436 823.5L391.47 825L371.157 825C366.349 825 361.547 824.653 356.789 823.963L345.436 822.314L330.436 819.5L313.436 815.272L297.436 809.01L284.936 803.492L322.936 805.332L336.436 805.332L347.936 805.332L361.436 804.5L368.321 803.496L379.501 801.367L391.47 797.899L410.936 793.504L434.936 786.504L460.936 778.504Z" fill="#003B79"/>
<path d="M551.5 802.002L578 787.994L598.225 777.618L614.5 768.919L628.437 762.48L652.014 753.046C657.991 750.655 664.184 748.846 670.509 747.646L685.5 744.799L688.321 744.138C695.798 742.387 703.452 741.502 711.131 741.502L713.5 741.502L718.979 741.502C724.091 741.502 729.196 741.894 734.248 742.674L748 744.799L760.503 748.002L774.406 752.953L782.5 757.094L791.178 762.48L798.27 766.819C800.555 768.216 802.716 769.807 804.73 771.573V771.573C806.739 773.334 808.595 775.264 810.276 777.341L810.5 777.618L811.78 779.57L813.208 781.678C813.389 781.945 813.397 782.293 813.228 782.568V782.568C813.03 782.89 812.636 783.035 812.275 782.918L802.982 779.894L791.178 777.618L785.015 776.456L774.406 774.22L760.503 771.467L754.591 770.428C748.877 769.424 743.086 768.919 737.284 768.919L728.503 768.919L718.003 768.919V768.919C713.112 768.919 708.229 769.336 703.408 770.166L694.003 771.784L680.963 775.495C675.998 776.909 671.149 778.704 666.46 780.866L651.003 787.994L631.503 798.764L612.003 809.34L580.003 826.606L564.158 834.201C558.202 837.056 551.978 839.314 545.578 840.942L531.767 844.454L517.418 848.494L497.783 851.994L487.865 854.194C483.969 855.058 479.99 855.494 476 855.494V855.494L464.958 855.494L447.476 854.001L430.193 854.001L410.5 851.994L394 848.494L376 844.461L408.5 843.002L432.081 841.002L449.5 838.494L466.5 835.502L485.5 830.002L509.5 820.002L529.5 811.502L551.5 802.002Z" fill="#003B79"/>
<path d="M601 840.172L621.988 826.001L641.988 814.501L650.996 809.999L652.601 808.972C659.834 804.343 667.634 800.665 675.806 798.028L678.996 796.999L680.862 796.425C688.26 794.149 695.897 792.739 703.619 792.225L706.996 791.999L713.365 792.471C718.108 792.822 722.805 793.636 727.389 794.901V794.901C732.446 796.296 737.337 798.232 741.979 800.675L744.496 801.999L745.67 802.838C749.488 805.565 752.531 809.239 754.5 813.498V813.498L742 812.262L724.5 810.998L712.5 810.998L703 812.262L686.5 815.998L663.496 824.498L655.655 828.175C650.229 830.718 644.586 832.769 638.793 834.303L630.5 836.498V836.498C623.214 838.931 615.584 840.172 607.903 840.172L601 840.172Z" fill="#003B79"/>
<path d="M828.359 561.571C831.082 560.209 834.085 559.5 837.13 559.5H841.097C844.25 559.5 847.39 559.909 850.437 560.718L851.5 561L855.279 562.47C858.742 563.816 861.998 565.646 864.95 567.903L865.106 568.023C867.691 569.999 870.011 572.3 872.009 574.869L872.671 575.72C874.874 578.553 876.58 581.739 877.715 585.144V585.144C878.237 586.712 878.637 588.319 878.908 589.95L878.987 590.42C879.328 592.47 879.5 594.544 879.5 596.623V601L879.386 602.201C878.796 608.388 877.663 614.512 876 620.5V620.5L875.574 621.694C874.981 623.354 876.938 624.75 878.315 623.648V623.648C878.438 623.55 878.573 623.469 878.718 623.406L880.588 622.605C881.527 622.203 882.428 621.715 883.278 621.148L884.716 620.19C885.9 619.4 887.184 618.772 888.535 618.322V618.322C890.168 617.777 891.878 617.5 893.599 617.5H898.671C900.545 617.5 902.406 617.802 904.184 618.395V618.395C905.391 618.797 906.55 619.33 907.641 619.985L908.899 620.74C910.297 621.578 911.617 622.54 912.844 623.613V623.613C914.277 624.868 915.576 626.268 916.719 627.792L918 629.5L921 634.5V634.5C921.986 636.473 922.5 638.648 922.5 640.854V643.118C922.5 646.321 921.696 649.474 920.162 652.286V652.286C919.721 653.094 919.223 653.87 918.671 654.606L915 659.5L908.441 666.496C907.926 667.045 907.059 667.059 906.527 666.527V666.527C906.199 666.199 906.065 665.726 906.173 665.275L908.266 656.485C908.421 655.83 908.5 655.16 908.5 654.488V653.802C908.5 651.419 907.33 649.181 905.378 647.815V647.815C904.159 646.961 902.702 646.5 901.213 646.5V646.5C900.086 646.5 898.975 646.762 897.968 647.266L894.554 648.973C892.529 649.986 890.661 651.287 889.009 652.835L883.5 658L873.5 666L864 672L854.942 676.767C854.648 676.922 854.337 677.041 854.015 677.121L852.64 677.465C851.414 677.771 850.15 677.125 849.681 675.952V675.952C849.561 675.653 849.5 675.335 849.5 675.013V664.824C849.5 660.292 850.056 655.777 851.155 651.379L851.5 650L851.564 649.509C852.517 642.202 852.496 634.801 851.5 627.5V627.5L851.421 627.065C850.811 623.711 849.655 620.48 848 617.5V617.5L847.928 617.392C846.059 614.589 845.429 611.139 846.187 607.857V607.857C846.395 606.955 846.5 606.033 846.5 605.107V598V595.939C846.5 593.065 845.522 590.278 843.727 588.034V588.034C842.914 587.017 841.949 586.132 840.865 585.41L837.117 582.912C836.707 582.638 836.267 582.413 835.805 582.24V582.24C833.746 581.467 831.435 581.799 829.676 583.118L829.065 583.576C828.689 583.858 828.288 584.106 827.868 584.316L825.123 585.688C824.056 586.222 822.879 586.5 821.685 586.5H820.268C819.136 586.5 818.05 586.05 817.25 585.25V585.25C816.45 584.45 816 583.364 816 582.232V578.332C816 577.116 816.162 575.905 816.482 574.732L816.545 574.5C817.173 572.198 818.325 570.072 819.91 568.289L820.436 567.697C821.144 566.9 821.918 566.165 822.75 565.5L824.877 563.798C825.956 562.935 827.123 562.189 828.359 561.571V561.571Z" fill="#003B79"/>
<path d="M166.5 720.5L206.5 724L229 726H260.5L285.5 724L310.5 719.5V719.5C311.16 725.441 312.995 731.191 315.898 736.416L319 742L294.5 745L267 746.5L245.5 745L229.41 742.946C224.477 742.316 219.598 741.319 214.813 739.964L199.255 735.556C194.425 734.187 189.705 732.457 185.135 730.38L175.5 726L166.5 720.5Z" fill="#003B79"/>
<path d="M184.929 536.886C190.924 533.326 197.529 530.912 204.406 529.766L205.629 529.562C207.873 529.188 210.143 529 212.417 529V529C215.793 529 219.156 529.414 222.431 530.233L223.945 530.611C226.311 531.203 228.623 531.991 230.857 532.969L232.218 533.564C234.399 534.518 236.462 535.721 238.366 537.149V537.149C240.447 538.71 242.322 540.528 243.948 542.559L245.315 544.268C246.763 546.079 247.924 548.101 248.756 550.265V550.265C249.58 552.409 250.073 554.666 250.216 556.959L250.333 558.836C250.444 560.609 250.419 562.389 250.258 564.159L250.15 565.349C250.05 566.448 249.866 567.538 249.598 568.608L249.435 569.258C248.819 571.726 247.693 574.037 246.132 576.045L245.752 576.533C245.252 577.176 244.688 577.767 244.069 578.298V578.298C242.389 579.738 240.346 580.692 238.162 581.056L237.561 581.157C236.194 581.384 234.802 581.413 233.427 581.241L231.275 580.972C228.809 580.664 226.479 579.665 224.555 578.091V578.091C222.878 576.718 221.564 574.953 220.73 572.952L219.949 571.077C219.653 570.366 219.5 569.603 219.5 568.833V567.125C219.5 564.847 217.653 563 215.375 563V563C214.798 563 214.228 563.121 213.7 563.356L209.7 565.133C206.924 566.367 204.398 568.102 202.25 570.25L201.598 570.902C198.891 573.609 196.733 576.812 195.242 580.337L194.248 582.688C192.764 586.194 192 589.962 192 593.768V593.768C192 596.574 192.415 599.364 193.232 602.048L193.973 604.482C194.988 607.816 196.382 611.023 198.128 614.039L201 619V619C203.888 623.171 205.051 628.297 204.246 633.306L201.265 651.851C201.093 652.923 201.261 654.022 201.747 654.994L202.486 656.472C203.871 659.242 201.857 662.5 198.761 662.5V662.5C197.939 662.5 197.135 662.257 196.451 661.801L183.66 653.273C180.892 651.428 178.298 649.336 175.909 647.021L167.93 639.292C164.984 636.437 162.324 633.302 159.989 629.929L158.848 628.28C155.966 624.118 153.737 619.54 152.236 614.705V614.705C150.754 609.929 150 604.957 150 599.956V598.806C150 592.642 150.994 586.519 152.943 580.672L154.433 576.2C155.809 572.074 157.523 568.068 159.558 564.224L160.775 561.926C163.905 556.013 168.023 550.578 172.849 545.945V545.945C176.242 542.688 180.042 539.788 184.086 537.386L184.929 536.886Z" fill="#003B79"/>
<path d="M136.582 663.582C135.531 662.531 134.606 661.36 133.827 660.094L131.405 656.158C131.14 655.728 131 655.233 131 654.728V654.728C131 653.221 132.221 652 133.728 652H138.831C140.25 652 141.643 652.386 142.86 653.116L143.5 653.5L148.5 656L157 660L166.5 664.5L177.646 668.68C180.876 669.891 184.203 670.826 187.592 671.475L202.139 674.261C204.655 674.742 206.968 675.968 208.78 677.78V677.78C211.163 680.163 214.39 681.51 217.761 681.527L499.5 683L482.48 689.156C478.193 690.707 473.668 691.5 469.109 691.5H408.854C407.313 691.5 406.311 693.122 407 694.5V694.5L407.236 694.877C408.742 697.286 410.003 699.84 411 702.5V702.5L412 706V706C412.66 709.301 412.66 712.699 412 716V716L411 722V722C410.006 725.646 408.468 729.121 406.439 732.31L406 733V733C403.689 736.302 400.756 739.121 397.366 741.3L395.5 742.5L393.612 743.444C389.554 745.473 385.251 746.968 380.81 747.894V747.894C377.279 748.629 373.682 749 370.076 749H366.341C360.142 749 353.972 748.159 348 746.5V746.5L341 743.5L340.488 743.224C336.546 741.102 333.133 738.12 330.5 734.5V734.5V734.5C328.183 731.853 326.333 728.831 325.026 725.565L325 725.5L323.5 720L323.412 719.517C322.809 716.202 322.839 712.804 323.5 709.5V709.5V709.5C324.165 706.506 325.093 703.576 326.273 700.745L327 699L329.5 694.5V694.5C330.304 693.294 329.352 691.695 327.909 691.826L321.028 692.452C320.677 692.484 320.33 692.553 319.993 692.657L306 697L286 702.5L269.177 704.953C264.399 705.65 259.576 706 254.747 706H234L222.432 705.154C216.489 704.719 210.597 703.754 204.826 702.27L196 700L176 692.5L159.5 683.5L152.459 678.431C148.83 675.818 145.491 672.824 142.5 669.5V669.5L136.582 663.582Z" fill="#003B79"/>
</svg>
