<svg width="792" height="873" viewBox="0 0 792 873" fill="none" xmlns="http://www.w3.org/2000/svg">
<rect x="391.5" y="72.5" width="10" height="530" fill="#003B79"/>
<path d="M282 94L302 83.5L322 75.5L345 69L381.5 64V64C384.279 64 386.104 61.0972 384.9 58.5925L363.423 13.9192C362.815 12.6559 362.5 11.2722 362.5 9.87047V9.87047C362.5 7.39225 363.484 5.01553 365.237 3.26316L365.5 3V3C367.421 1.07913 370.026 0 372.743 0H420.046C422.298 0 424.5 0.66668 426.374 1.91603L426.718 2.14523C427.566 2.71096 428.313 3.41686 428.925 4.23276V4.23276C430.261 6.01402 430.888 8.22742 430.687 10.4448L430.659 10.7559C430.554 11.9095 430.245 13.0354 429.748 14.0815L414.388 46.3679C410.394 54.7638 416.215 64.5238 425.5 65V65L447 69L468.5 74.5L479 78L492 83.5L505.5 90L516.257 96.1467C518.416 97.3805 520.48 98.7737 522.432 100.315L529 105.5L540 115L551.51 127.7C553.499 129.896 555.29 132.264 556.86 134.776L562 143L570 159L576 174.5L580 189L588 225.5L595.5 274.5L597.5 300L602.5 331.5L606.893 359.32C606.964 359.773 607 360.23 607 360.689V360.689C607 361.228 607.05 361.767 607.149 362.298L612.5 391L619 424L627 449L635 472L644.5 490.5L652 503.5L657.316 511.298C658.77 513.429 660.386 515.445 662.151 517.328L667 522.5L670.974 526.474C672.988 528.488 675.169 530.326 677.496 531.968L682.5 535.5L686.592 537.667C689.524 539.218 692.293 541.058 694.86 543.158L696.5 544.5L699.162 547.162C700.719 548.719 702.163 550.384 703.483 552.145L704.888 554.017C705.628 555.004 706.278 556.055 706.829 557.158V557.158C708.257 560.014 709 563.162 709 566.354V576.5V596.75C709 599.373 706.873 601.5 704.25 601.5V601.5C701.627 601.5 699.5 599.373 699.5 596.75V577V574.309C699.5 571.777 699.223 569.253 698.674 566.782L698.273 564.976C697.761 562.673 696.895 560.462 695.706 558.424V558.424C694.575 556.485 693.164 554.724 691.519 553.197L689.892 551.685C687.969 549.9 685.866 548.32 683.616 546.97L679.5 544.5L668 536.5L660.484 529.7C658.498 527.903 656.659 525.949 654.986 523.858L647.5 514.5L640.5 503.5L631 486L622 465L612.5 438.5L605.5 410L601.5 387L595.5 361.5L590 314.5L587 288.5L583 254.5L578.5 226.5L574 203L568.5 186.5L563.5 171.5L556.5 154.5L549.5 141.5L543.922 133.297C541.979 130.44 539.746 127.792 537.257 125.396L527.5 116L516.496 107.564C513.839 105.526 510.983 103.761 507.973 102.295L493 95L470.707 85.9971C468.24 85.0006 465.697 84.2027 463.102 83.611L438.5 78L421 74.5L405.643 73.3187C402.886 73.1066 400.116 73.1236 397.361 73.3695L373.5 75.5L354 78L332 83.5L304.5 94L283.145 105.104C280.719 106.366 278.401 107.825 276.213 109.465L269.78 114.29C266.935 116.424 264.325 118.855 261.996 121.543L252.5 132.5L236.933 156.283C235.314 158.756 233.918 161.368 232.76 164.088L226.248 179.392C225.085 182.125 224.168 184.956 223.507 187.852L218 212L212 247.5L206.5 293L202 326L200 351.5L198.5 361.5L192 394.5L189 406.5L183 427L175 454.5L166.5 474.5L156 495L144 513.5L134.5 524.5L121 537.5L115.266 543.234C113.425 545.075 111.44 546.766 109.329 548.29L106.13 550.601C104.386 551.86 102.836 553.368 101.529 555.077V555.077C98.5917 558.919 97 563.62 97 568.456V581V581C97.4415 587.181 102.617 591.952 108.813 591.89L391.598 589.067C395.298 589.03 398.333 591.988 398.392 595.687V595.687C398.451 599.436 395.435 602.51 391.687 602.522L105.5 603.441C95.2923 603.473 87 595.208 87 585V585L86.0897 563.153C86.0302 561.725 86.176 560.296 86.5226 558.91V558.91C86.8395 557.642 87.3214 556.422 87.9559 555.279L88.5772 554.161C89.1915 553.055 89.89 551.999 90.6666 551L91.0401 550.52C92.3436 548.844 93.808 547.3 95.4124 545.909L100.5 541.5L107.416 536.659C109.469 535.222 111.411 533.632 113.226 531.904L121 524.5L130.5 513.5L140.5 500.5L147.5 489.5L155 475.5L160.5 461.5L165 449L169 437.5L176 415L180.441 399.659C181.146 397.223 181.665 394.737 181.993 392.223L183 384.5L188.5 353L194 313L198.5 267.5L204 225L208.313 201.28C208.77 198.764 209.42 196.286 210.257 193.869L216.777 175.033C217.591 172.681 218.58 170.393 219.735 168.188L234.5 140L245.5 124.5L258.566 110.345C261.838 106.8 265.606 103.748 269.752 101.282L282 94Z" fill="#003B79"/>
<rect width="10" height="397" transform="matrix(0 1 1 0 198.5 351.5)" fill="#003B79"/>
<path d="M305.829 242.718H294.117C294.117 253.933 294.117 264.297 294.117 273.808C294.259 283.178 294.4 292.406 294.542 301.492H307.532C321.161 301.492 331.311 299.007 337.984 294.038C344.656 289.07 347.992 281.9 347.992 272.531C347.992 262.593 344.656 255.14 337.984 250.171C331.311 245.203 320.593 242.718 305.829 242.718ZM309.236 178.834H294.542C294.4 187.92 294.259 197.148 294.117 206.517C294.117 215.745 294.117 224.547 294.117 232.923H305.19C318.109 232.923 327.478 230.722 333.299 226.321C339.119 221.92 342.03 214.893 342.03 205.24C342.03 195.586 339.261 188.772 333.725 184.797C328.33 180.822 320.167 178.834 309.236 178.834ZM253.87 177.77V169.039H315.624C330.388 169.039 341.817 172.304 349.909 178.834C358.001 185.365 362.047 193.67 362.047 203.749C362.047 211.273 359.491 218.158 354.38 224.405C349.27 230.651 340.823 234.981 329.04 237.395C343.236 239.382 353.458 243.57 359.704 249.958C366.092 256.347 369.287 263.871 369.287 272.531C369.287 278.919 367.37 285.095 363.537 291.057C359.846 297.02 353.813 301.917 345.437 305.75C337.061 309.583 326.059 311.5 312.43 311.5H253.87V302.769L273.461 300.427C273.745 291.483 273.887 282.397 273.887 273.17C273.887 263.942 273.887 254.714 273.887 245.487V235.052C273.887 225.824 273.887 216.668 273.887 207.582C273.887 198.354 273.745 189.198 273.461 180.112L253.87 177.77Z" fill="#003B79"/>
<path d="M419.805 547.5V538.769L438.97 536.001V416.112L419.805 413.77V405.039H459.2L506.9 522.159L552.045 405.039H593.995V413.77L574.404 416.112C574.262 425.056 574.12 434.141 573.978 443.369C573.978 452.597 573.978 461.824 573.978 471.052V481.487C573.978 490.572 573.978 499.729 573.978 508.957C574.12 518.042 574.262 527.199 574.404 536.427L593.995 538.769V547.5H536.074V538.769L553.961 536.427C554.245 527.483 554.387 518.397 554.387 509.17C554.387 499.942 554.387 490.785 554.387 481.7V428.676L508.178 547.5H497.53L448.766 428.676L450.043 468.923V536.001L467.505 538.769V547.5H419.805Z" fill="#003B79"/>
<path d="M289.007 668.943L293.013 655.945L337.015 643.445L364.022 634.444L403.519 617.941L451.015 599.445L497.523 586.444L527.52 580.943L545.034 578.647L561 577L578 577L602.5 578.647L624.5 582.5L640.5 586.444L659 592.5L675 599.445L691 607L706.5 617L716 623.5L725 631L731 636L733.5 640L732.5 641.5L717.5 636L695 627.5L675 621.5L659 617L635 612L612.5 608.5L592 607L576.5 608.5L561 610L539.5 614L510 620L476.013 628.945L454.513 637.445L413.513 653.445L364.023 674.945L330.513 688.945L295.013 700.945L274.511 707.445L243.011 714.444L215.514 718.442L194.017 718.441L162.02 716.94L140.519 714.448L126.004 710.461L100.5 700.945L78 690L121.999 692.441L131.499 692.441L139.5 692.441L152.999 691.443L169.997 689.942L183.025 687.956L197.025 684.454L202.02 686.941L210.52 691.443L225.02 694.943L243.011 694.943L260.512 691.443L272.512 685.443L281.512 678.946L289.007 668.943Z" fill="#003B79"/>
<path d="M289.007 668.943L293.013 655.945L337.015 643.445L364.022 634.444L403.519 617.941L451.015 599.445L497.523 586.444L527.52 580.943L545.034 578.647L561 577L578 577L602.5 578.647L624.5 582.5L640.5 586.444L659 592.5L675 599.445L691 607L706.5 617L716 623.5L725 631L731 636L733.5 640L732.5 641.5L717.5 636L695 627.5L675 621.5L659 617L635 612L612.5 608.5L592 607L576.5 608.5L561 610L539.5 614L510 620L476.013 628.945L454.513 637.445L413.513 653.445L364.023 674.945L330.513 688.945L295.013 700.945L274.511 707.445L243.011 714.444L215.514 718.442L194.017 718.441L162.02 716.94L140.519 714.448L126.004 710.461L100.5 700.945L78 690L121.999 692.441L131.499 692.441L139.5 692.441L152.999 691.443L169.997 689.942L183.025 687.956L197.025 684.454L202.02 686.941L210.52 691.443L225.02 694.943L243.011 694.943L260.512 691.443L272.512 685.443L281.512 678.946L289.007 668.943Z" fill="#003B79"/>
<path d="M329.936 710.504L348.936 703.504L379.967 690.053L404.936 679L436.936 664L476.942 648.454L516.661 635.755L542.372 630.052L557.412 627.514L571.137 625.583L585.807 625.042L607.002 625.684L626.109 628.308L640.042 631.202L656.199 635.839L670.227 641.322L684.275 647.332L697.969 655.468L706.374 660.775L714.379 666.96L719.076 670.589C719.5 670.917 719.869 671.31 720.17 671.754L721.607 673.875C721.847 674.229 721.857 674.69 721.633 675.053V675.053C721.371 675.481 720.849 675.673 720.372 675.518L708.066 671.514L692.436 668.5L673.936 664L660.436 660.354L638.936 656.981L623.936 655L601.436 653.43L585.807 654.06L583.275 654.06C575.906 654.06 568.561 654.875 561.371 656.489L553.762 658.197L528.497 664.314L499.453 673.115L481.171 681.135L450.936 696.5L410.436 716.5L381.436 729.899L348.936 741.01L329.936 746L307.936 751.5L287.436 755.5L260.47 757L240.157 757C235.349 757 230.547 756.653 225.789 755.963L214.436 754.314L199.436 751.5L182.436 747.272L166.436 741.01L153.936 735.492L191.936 737.332L205.436 737.332L216.936 737.332L230.436 736.5L237.321 735.496L248.501 733.367L260.47 729.899L279.936 725.504L303.936 718.504L329.936 710.504Z" fill="#003B79"/>
<path d="M420.5 734.002L447 719.994L467.225 709.618L483.5 700.919L497.437 694.48L521.014 685.046C526.991 682.655 533.184 680.846 539.509 679.646L554.5 676.799L557.321 676.138C564.798 674.387 572.452 673.502 580.131 673.502L582.5 673.502L587.979 673.502C593.091 673.502 598.196 673.894 603.248 674.674L617 676.799L629.503 680.002L643.406 684.953L651.5 689.094L660.178 694.48L667.27 698.819C669.555 700.216 671.716 701.807 673.73 703.573V703.573C675.739 705.334 677.595 707.264 679.276 709.341L679.5 709.618L680.78 711.57L682.208 713.678C682.389 713.945 682.397 714.293 682.228 714.568V714.568C682.03 714.89 681.636 715.035 681.275 714.918L671.982 711.894L660.178 709.618L654.015 708.456L643.406 706.22L629.503 703.467L623.591 702.428C617.877 701.424 612.086 700.919 606.284 700.919L597.503 700.919L587.003 700.919V700.919C582.112 700.919 577.229 701.336 572.408 702.166L563.003 703.784L549.963 707.495C544.998 708.909 540.149 710.704 535.46 712.866L520.003 719.994L500.503 730.764L481.003 741.34L449.003 758.606L433.158 766.201C427.202 769.056 420.978 771.314 414.578 772.942L400.767 776.454L386.418 780.494L366.783 783.994L356.865 786.194C352.969 787.058 348.99 787.494 345 787.494V787.494L333.958 787.494L316.476 786.001L299.193 786.001L279.5 783.994L263 780.494L245 776.461L277.5 775.002L301.081 773.002L318.5 770.494L335.5 767.502L354.5 762.002L378.5 752.002L398.5 743.502L420.5 734.002Z" fill="#003B79"/>
<path d="M470 772.172L490.988 758.001L510.988 746.501L519.996 741.999L521.601 740.972C528.834 736.343 536.634 732.665 544.806 730.028L547.996 728.999L549.862 728.425C557.26 726.149 564.897 724.739 572.619 724.225L575.996 723.999L582.365 724.471C587.108 724.822 591.805 725.636 596.389 726.901V726.901C601.446 728.296 606.337 730.232 610.979 732.675L613.496 733.999L614.67 734.838C618.488 737.565 621.531 741.239 623.5 745.498V745.498L611 744.262L593.5 742.998L581.5 742.998L572 744.262L555.5 747.998L532.496 756.498L524.655 760.175C519.229 762.718 513.586 764.769 507.793 766.303L499.5 768.498V768.498C492.214 770.931 484.584 772.172 476.903 772.172L470 772.172Z" fill="#003B79"/>
<path d="M697.359 493.571C700.082 492.209 703.085 491.5 706.13 491.5H710.097C713.25 491.5 716.39 491.909 719.437 492.718L720.5 493L724.279 494.47C727.742 495.816 730.998 497.646 733.95 499.903L734.106 500.023C736.691 501.999 739.011 504.3 741.009 506.869L741.671 507.72C743.874 510.553 745.58 513.739 746.715 517.144V517.144C747.237 518.712 747.637 520.319 747.908 521.95L747.987 522.42C748.328 524.47 748.5 526.544 748.5 528.623V533L748.386 534.201C747.796 540.388 746.663 546.512 745 552.5V552.5L744.574 553.694C743.981 555.354 745.938 556.75 747.315 555.648V555.648C747.438 555.55 747.573 555.469 747.718 555.406L749.588 554.605C750.527 554.203 751.428 553.715 752.278 553.148L753.716 552.19C754.9 551.4 756.184 550.772 757.535 550.322V550.322C759.168 549.777 760.878 549.5 762.599 549.5H767.671C769.545 549.5 771.406 549.802 773.184 550.395V550.395C774.391 550.797 775.55 551.33 776.641 551.985L777.899 552.74C779.297 553.578 780.617 554.54 781.844 555.613V555.613C783.277 556.868 784.576 558.268 785.719 559.792L787 561.5L790 566.5V566.5C790.986 568.473 791.5 570.648 791.5 572.854V575.118C791.5 578.321 790.696 581.474 789.162 584.286V584.286C788.721 585.094 788.223 585.87 787.671 586.606L784 591.5L777.441 598.496C776.926 599.045 776.059 599.059 775.527 598.527V598.527C775.199 598.199 775.065 597.726 775.173 597.275L777.266 588.485C777.421 587.83 777.5 587.16 777.5 586.488V585.802C777.5 583.419 776.33 581.181 774.378 579.815V579.815C773.159 578.961 771.702 578.5 770.213 578.5V578.5C769.086 578.5 767.975 578.762 766.968 579.266L763.554 580.973C761.529 581.986 759.661 583.287 758.009 584.835L752.5 590L742.5 598L733 604L723.942 608.767C723.648 608.922 723.337 609.041 723.015 609.121L721.64 609.465C720.414 609.771 719.15 609.125 718.681 607.952V607.952C718.561 607.653 718.5 607.335 718.5 607.013V596.824C718.5 592.292 719.056 587.777 720.155 583.379L720.5 582L720.564 581.509C721.517 574.202 721.496 566.801 720.5 559.5V559.5L720.421 559.065C719.811 555.711 718.655 552.48 717 549.5V549.5L716.928 549.392C715.059 546.589 714.429 543.139 715.187 539.857V539.857C715.395 538.955 715.5 538.033 715.5 537.107V530V527.939C715.5 525.065 714.522 522.278 712.727 520.034V520.034C711.914 519.017 710.949 518.132 709.865 517.41L706.117 514.912C705.707 514.638 705.267 514.413 704.805 514.24V514.24C702.746 513.467 700.435 513.799 698.676 515.118L698.065 515.576C697.689 515.858 697.288 516.106 696.868 516.316L694.123 517.688C693.056 518.222 691.879 518.5 690.685 518.5H689.268C688.136 518.5 687.05 518.05 686.25 517.25V517.25C685.45 516.45 685 515.364 685 514.232V510.332C685 509.116 685.162 507.905 685.482 506.732L685.545 506.5C686.173 504.198 687.325 502.072 688.91 500.289L689.436 499.697C690.144 498.9 690.918 498.165 691.75 497.5L693.877 495.798C694.956 494.935 696.123 494.189 697.359 493.571V493.571Z" fill="#003B79"/>
<path d="M35.5 652.5L75.5 656L98 658H129.5L154.5 656L179.5 651.5V651.5C180.16 657.441 181.995 663.191 184.898 668.416L188 674L163.5 677L136 678.5L114.5 677L98.4099 674.946C93.4768 674.316 88.5976 673.319 83.8129 671.964L68.2552 667.556C63.4252 666.187 58.7052 664.457 54.1351 662.38L44.5 658L35.5 652.5Z" fill="#003B79"/>
<path d="M53.9287 468.886C59.924 465.326 66.5287 462.912 73.4063 461.766L74.6293 461.562C76.8726 461.188 79.1429 461 81.4171 461V461C84.793 461 88.1561 461.414 91.4311 462.233L92.9453 462.611C95.3109 463.203 97.6229 463.991 99.8569 464.969L101.218 465.564C103.399 466.518 105.462 467.721 107.366 469.149V469.149C109.447 470.71 111.322 472.528 112.948 474.559L114.315 476.268C115.763 478.079 116.924 480.101 117.756 482.265V482.265C118.58 484.409 119.073 486.666 119.216 488.959L119.333 490.836C119.444 492.609 119.419 494.389 119.258 496.159L119.15 497.349C119.05 498.448 118.866 499.538 118.598 500.608L118.435 501.258C117.819 503.726 116.693 506.037 115.132 508.045L114.752 508.533C114.252 509.176 113.688 509.767 113.069 510.298V510.298C111.389 511.738 109.346 512.692 107.162 513.056L106.561 513.157C105.194 513.384 103.802 513.413 102.427 513.241L100.275 512.972C97.8087 512.664 95.4792 511.665 93.5553 510.091V510.091C91.8776 508.718 90.5639 506.953 89.7302 504.952L88.9487 503.077C88.6525 502.366 88.5 501.603 88.5 500.833V499.125C88.5 496.847 86.6533 495 84.3753 495V495C83.7982 495 83.2275 495.121 82.7001 495.356L78.6999 497.133C75.9237 498.367 73.3984 500.102 71.2501 502.25L70.5979 502.902C67.8915 505.609 65.7333 508.812 64.2419 512.337L63.2475 514.688C61.7643 518.194 61 521.962 61 525.768V525.768C61 528.574 61.4152 531.364 62.2321 534.048L62.9729 536.482C63.9876 539.816 65.3817 543.023 67.1279 546.039L70 551V551C72.8876 555.171 74.0505 560.297 73.2455 565.306L70.265 583.851C70.0927 584.923 70.2612 586.022 70.7469 586.994L71.4862 588.472C72.8709 591.242 70.8572 594.5 67.761 594.5V594.5C66.9388 594.5 66.1349 594.257 65.4508 593.801L52.6602 585.273C49.8924 583.428 47.298 581.336 44.9089 579.021L36.93 571.292C33.9837 568.437 31.3241 565.302 28.9892 561.929L27.8478 560.28C24.9661 556.118 22.7366 551.54 21.236 546.705V546.705C19.7538 541.929 19 536.957 19 531.956V530.806C19 524.642 19.9937 518.519 21.9428 512.672L23.4332 508.2C24.8087 504.074 26.5228 500.068 28.558 496.224L29.7745 493.926C32.9047 488.013 37.0232 482.578 41.8494 477.945V477.945C45.2422 474.688 49.042 471.788 53.0861 469.386L53.9287 468.886Z" fill="#003B79"/>
<path d="M5.58226 595.582C4.53103 594.531 3.60641 593.36 2.82725 592.094L0.40466 588.158C0.140084 587.728 0 587.233 0 586.728V586.728C0 585.221 1.22132 584 2.72789 584H7.83095C9.25026 584 10.6429 584.386 11.8599 585.116L12.5 585.5L17.5 588L26 592L35.5 596.5L46.6457 600.68C49.8761 601.891 53.2034 602.826 56.5919 603.475L71.1387 606.261C73.6549 606.742 75.9684 607.968 77.78 609.78V609.78C80.1632 612.163 83.3905 613.51 86.7608 613.527L368.5 615L351.48 621.156C347.193 622.707 342.668 623.5 338.109 623.5H277.854C276.313 623.5 275.311 625.122 276 626.5V626.5L276.236 626.877C277.742 629.286 279.003 631.84 280 634.5V634.5L281 638V638C281.66 641.301 281.66 644.699 281 648V648L280 654V654C279.006 657.646 277.468 661.121 275.439 664.31L275 665V665C272.689 668.302 269.756 671.121 266.366 673.3L264.5 674.5L262.612 675.444C258.554 677.473 254.251 678.968 249.81 679.894V679.894C246.279 680.629 242.682 681 239.076 681H235.341C229.142 681 222.972 680.159 217 678.5V678.5L210 675.5L209.488 675.224C205.546 673.102 202.133 670.12 199.5 666.5V666.5V666.5C197.183 663.853 195.333 660.831 194.026 657.565L194 657.5L192.5 652L192.412 651.517C191.809 648.202 191.839 644.804 192.5 641.5V641.5V641.5C193.165 638.506 194.093 635.576 195.273 632.745L196 631L198.5 626.5V626.5C199.304 625.294 198.352 623.695 196.909 623.826L190.028 624.452C189.677 624.484 189.33 624.553 188.993 624.657L175 629L155 634.5L138.177 636.953C133.399 637.65 128.576 638 123.747 638H103L91.4324 637.154C85.4894 636.719 79.5971 635.754 73.8259 634.27L65 632L45 624.5L28.5 615.5L21.459 610.431C17.8301 607.818 14.4914 604.824 11.5 601.5V601.5L5.58226 595.582Z" fill="#003B79"/>
</svg>
